<svg width="195" height="202" viewBox="0 0 195 202" fill="none" xmlns="http://www.w3.org/2000/svg">
<g opacity="0.2" clip-path="url(#clip0_324_2562)">
<path d="M-36 238.339L281.272 -78.9324" stroke="white" stroke-width="2"/>
<path d="M-36 410.14L281.272 92.8684" stroke="white" stroke-width="2"/>
<path d="M-36 250.611L281.272 -66.6609" stroke="white" stroke-width="2"/>
<path d="M-35.9995 422.411L281.272 105.14" stroke="white" stroke-width="2"/>
<path d="M-35.9995 262.882L281.272 -54.3894" stroke="white" stroke-width="2"/>
<path d="M-36 434.683L281.272 117.411" stroke="white" stroke-width="2"/>
<path d="M-36 275.154L281.272 -42.1179" stroke="white" stroke-width="2"/>
<path d="M-35.9995 446.954L281.272 129.683" stroke="white" stroke-width="2"/>
<path d="M-35.9995 287.425L281.272 -29.8464" stroke="white" stroke-width="2"/>
<path d="M-36 459.226L281.272 141.954" stroke="white" stroke-width="2"/>
<path d="M-36 299.697L281.272 -17.575" stroke="white" stroke-width="2"/>
<path d="M-35.9995 471.497L281.272 154.226" stroke="white" stroke-width="2"/>
<path d="M-35.9995 311.968L281.272 -5.30348" stroke="white" stroke-width="2"/>
<path d="M-36 483.769L281.272 166.497" stroke="white" stroke-width="2"/>
<path d="M-36 324.24L281.272 6.968" stroke="white" stroke-width="2"/>
<path d="M-35.9995 496.04L281.272 178.769" stroke="white" stroke-width="2"/>
<path d="M-35.9995 336.511L281.272 19.2395" stroke="white" stroke-width="2"/>
<path d="M-36 508.312L281.272 191.04" stroke="white" stroke-width="2"/>
<path d="M-36 348.783L281.272 31.511" stroke="white" stroke-width="2"/>
<path d="M-35.9995 361.054L281.272 43.7825" stroke="white" stroke-width="2"/>
<path d="M-36 373.325L281.272 56.0539" stroke="white" stroke-width="2"/>
<path d="M-35.9995 385.597L281.272 68.3254" stroke="white" stroke-width="2"/>
<path d="M-36 397.868L281.272 80.5969" stroke="white" stroke-width="2"/>
</g>
<defs>
<clipPath id="clip0_324_2562">
<rect width="202" height="195" fill="white" transform="matrix(4.37114e-08 1 1 -4.37114e-08 0 0)"/>
</clipPath>
</defs>
</svg>
