<svg width="16" height="16" viewBox="0 0 16 16" fill="none" xmlns="http://www.w3.org/2000/svg">
<circle cx="8" cy="8" r="7.52941" stroke="#FFB800" stroke-width="0.941176"/>
<path d="M8.0018 4.21271C7.78219 4.21271 7.59772 4.13804 7.44839 3.98871C7.29906 3.83937 7.22439 3.65929 7.22439 3.44847C7.22439 3.23765 7.29906 3.05757 7.44839 2.90823C7.59772 2.75012 7.78219 2.67106 8.0018 2.67106C8.21262 2.67106 8.3927 2.75012 8.54204 2.90823C8.69137 3.05757 8.76604 3.23765 8.76604 3.44847C8.76604 3.65929 8.69137 3.83937 8.54204 3.98871C8.3927 4.13804 8.21262 4.21271 8.0018 4.21271ZM7.42204 12V5.41176H8.56839V12H7.42204Z" fill="#FFB800"/>
</svg>
