<svg width="222" height="40" viewBox="0 0 222 40" fill="none" xmlns="http://www.w3.org/2000/svg">
<path d="M24.4617 23.9797L20.3477 20.0009L24.4617 16.1297V8.27979L12.231 20.0009L24.4617 31.7221V23.9797Z" fill="#FF0040"/>
<path d="M0 0.125V39.875H39.75V0.125H0ZM34.0714 34.1964H5.67857V5.80357H34.0714V34.1964Z" fill="#FF0040"/>
<path d="M50.6035 2.30706L53.8177 9.10803L56.566 2.30706H61.4571L55.6111 14.7095C54.9589 16.0604 54.1205 17.1551 53.0957 17.9936C52.0709 18.8243 50.883 19.2396 49.5321 19.2396C49.1517 19.2396 48.7791 19.2086 48.4142 19.1465C48.057 19.0844 47.7931 19.0222 47.6223 18.9601L47.3777 18.8903V14.9541C47.7737 15.1094 48.2511 15.187 48.8101 15.187C49.4467 15.187 49.9785 15.0356 50.4055 14.7328C50.8403 14.43 51.1431 14.104 51.3139 13.7546L51.5584 13.2771L45.7124 2.30706H50.6035Z" fill="white"/>
<path d="M77.3193 2.30706V19.0067H72.7892V12.5668H66.7102V19.0067H62.1801V2.30706H66.7102V8.51411H72.7892V2.30706H77.3193Z" fill="white"/>
<path d="M80.185 2.30706H84.7151V11.6118L91.8654 2.30706H95.8016V19.0067H91.2715V9.70195L84.0979 19.0067H80.185V2.30706Z" fill="white"/>
<path d="M106.668 19.0067H98.679V2.30706H106.19C107.906 2.30706 109.288 2.7457 110.336 3.623C111.384 4.50029 111.908 5.53286 111.908 6.7207C111.908 7.17876 111.835 7.61741 111.687 8.03665C111.54 8.44812 111.361 8.77808 111.151 9.02652C110.942 9.27495 110.732 9.49234 110.522 9.67866C110.321 9.85723 110.142 9.98533 109.987 10.063L109.766 10.1794C109.843 10.2105 109.948 10.2571 110.08 10.3192C110.22 10.3735 110.46 10.5094 110.802 10.7268C111.144 10.9364 111.446 11.1771 111.71 11.4488C111.974 11.7205 112.211 12.0932 112.421 12.5668C112.638 13.0403 112.747 13.5566 112.747 14.1156C112.747 15.4199 112.176 16.5612 111.035 17.5394C109.901 18.5176 108.446 19.0067 106.668 19.0067ZM103.209 15.4315H106.307C106.835 15.4315 107.266 15.2724 107.599 14.9541C107.933 14.6358 108.1 14.2398 108.1 13.7662C108.1 13.2849 107.933 12.8851 107.599 12.5668C107.266 12.2484 106.835 12.0893 106.307 12.0893H103.209V15.4315ZM105.713 5.89387H103.209V8.74702H105.713C106.186 8.74702 106.563 8.61892 106.842 8.36272C107.122 8.09876 107.262 7.75327 107.262 7.32627C107.262 6.8915 107.122 6.54602 106.842 6.28982C106.563 6.02586 106.186 5.89387 105.713 5.89387Z" fill="white"/>
<path d="M119.188 15.187H127.77V19.0067H114.658V2.30706H127.538V6.12678H119.188V8.74702H125.628V12.3338H119.188V15.187Z" fill="white"/>
<path d="M129.681 2.30706H137.193C139.025 2.30706 140.515 2.86216 141.664 3.97236C142.813 5.07481 143.388 6.46838 143.388 8.1531C143.388 9.83782 142.81 11.2353 141.653 12.3455C140.504 13.4479 139.017 13.9991 137.193 13.9991H134.211V19.0067H129.681V2.30706ZM136.948 6.37134H134.211V9.94651H136.948C137.476 9.94651 137.926 9.76795 138.299 9.41082C138.672 9.05369 138.858 8.63833 138.858 8.16475C138.858 7.6834 138.672 7.26416 138.299 6.90703C137.926 6.5499 137.476 6.37134 136.948 6.37134Z" fill="white"/>
<path d="M150.248 7.2564C149.34 8.15698 148.886 9.29048 148.886 10.6569C148.886 12.0233 149.34 13.1607 150.248 14.069C151.156 14.9774 152.294 15.4315 153.66 15.4315C154.506 15.4315 155.306 15.253 156.059 14.8959C156.812 14.5387 157.356 14.1777 157.69 13.8128L158.19 13.2771L160.811 16.1419C160.748 16.2351 160.655 16.3593 160.531 16.5146C160.415 16.6621 160.135 16.9299 159.693 17.3181C159.258 17.6985 158.784 18.0363 158.272 18.3313C157.767 18.6263 157.096 18.8903 156.257 19.1232C155.426 19.3638 154.561 19.4842 153.66 19.4842C151.067 19.4842 148.866 18.6185 147.057 16.8872C145.256 15.1482 144.355 13.0714 144.355 10.6569C144.355 8.24238 145.256 6.16948 147.057 4.43818C148.866 2.69912 151.067 1.82959 153.66 1.82959C154.553 1.82959 155.403 1.94604 156.211 2.17896C157.018 2.41187 157.682 2.69136 158.202 3.01743C158.73 3.34351 159.188 3.66958 159.576 3.99565C159.972 4.32173 160.255 4.60122 160.426 4.83413L160.694 5.17185L157.946 8.03665C157.899 7.97454 157.837 7.8969 157.759 7.80374C157.682 7.70281 157.503 7.53201 157.224 7.29133C156.944 7.0429 156.653 6.82551 156.35 6.63919C156.048 6.44509 155.648 6.27429 155.151 6.12678C154.662 5.97151 154.165 5.89387 153.66 5.89387C152.294 5.89387 151.156 6.34805 150.248 7.2564Z" fill="white"/>
<path d="M162.244 2.30706H166.774V11.6118L173.924 2.30706H177.861V19.0067H173.33V9.70195L166.157 19.0067H162.244V2.30706Z" fill="white"/>
<path d="M179.306 2.30706H193.14V6.37134H188.482V19.0067H183.952V6.37134H179.306V2.30706Z" fill="white"/>
<path d="M199.104 15.187H207.687V19.0067H194.574V2.30706H207.454V6.12678H199.104V8.74702H205.544V12.3338H199.104V15.187Z" fill="white"/>
<path d="M208.165 2.30706H222V6.37134H217.342V19.0067H212.812V6.37134H208.165V2.30706Z" fill="white"/>
<path d="M52.56 27.1314C51.6516 28.032 51.1974 29.1655 51.1974 30.5319C51.1974 31.8983 51.6516 33.0357 52.56 33.944C53.4683 34.8524 54.6057 35.3065 55.9721 35.3065C56.8183 35.3065 57.618 35.128 58.3711 34.7709C59.1242 34.4137 59.6676 34.0527 60.0014 33.6878L60.5022 33.1521L63.1224 36.0169C63.0603 36.1101 62.9672 36.2343 62.843 36.3896C62.7265 36.5371 62.447 36.8049 62.0045 37.1931C61.5697 37.5735 61.0961 37.9113 60.5837 38.2063C60.0791 38.5013 59.4075 38.7653 58.569 38.9982C57.7383 39.2388 56.8727 39.3592 55.9721 39.3592C53.379 39.3592 51.178 38.4935 49.3691 36.7622C47.5679 35.0232 46.6673 32.9464 46.6673 30.5319C46.6673 28.1174 47.5679 26.0445 49.3691 24.3132C51.178 22.5741 53.379 21.7046 55.9721 21.7046C56.8649 21.7046 57.715 21.821 58.5225 22.054C59.3299 22.2869 59.9937 22.5664 60.5138 22.8924C61.0418 23.2185 61.4998 23.5446 61.888 23.8707C62.284 24.1967 62.5673 24.4762 62.7381 24.7091L63.006 25.0469L60.2576 27.9117C60.2111 27.8495 60.149 27.7719 60.0713 27.6787C59.9937 27.5778 59.8151 27.407 59.5356 27.1663C59.2561 26.9179 58.965 26.7005 58.6622 26.5142C58.3594 26.3201 57.9596 26.1493 57.4627 26.0018C56.9736 25.8465 56.4767 25.7689 55.9721 25.7689C54.6057 25.7689 53.4683 26.2231 52.56 27.1314Z" fill="white"/>
<path d="M64.5558 22.1821H69.0859V31.4868L76.2362 22.1821H80.1724V38.8817H75.6423V29.577L68.4687 38.8817H64.5558V22.1821Z" fill="white"/>
<path d="M98.1889 22.1821V38.8817H93.6588V32.4418H87.5799V38.8817H83.0498V22.1821H87.5799V28.3891H93.6588V22.1821H98.1889Z" fill="white"/>
<path d="M105.585 35.062H114.168V38.8817H101.055V22.1821H113.935V26.0018H105.585V28.622H112.025V32.2088H105.585V35.062Z" fill="white"/>
<path d="M116.078 22.1821H123.59C125.422 22.1821 126.913 22.7372 128.062 23.8474C129.211 24.9498 129.785 26.3434 129.785 28.0281C129.785 29.7128 129.207 31.1103 128.05 32.2205C126.901 33.3229 125.414 33.8742 123.59 33.8742H120.608V38.8817H116.078V22.1821ZM123.345 26.2463H120.608V29.8215H123.345C123.873 29.8215 124.323 29.643 124.696 29.2858C125.069 28.9287 125.255 28.5133 125.255 28.0398C125.255 27.5584 125.069 27.1392 124.696 26.782C124.323 26.4249 123.873 26.2463 123.345 26.2463Z" fill="white"/>
<path d="M131.708 38.8817V22.1821H143.633V26.2463H136.238V38.8817H131.708Z" fill="white"/>
<path d="M144.821 22.1821H149.351V31.4868L156.502 22.1821H160.438V38.8817H155.908V29.577L148.734 38.8817H144.821V22.1821Z" fill="white"/>
<path d="M176.673 22.1821V38.8817H172.143V33.6296H169.755L166.89 38.8817H162.116L165.575 32.8028C165.497 32.7717 165.392 32.7212 165.26 32.6514C165.136 32.5737 164.911 32.3952 164.585 32.1157C164.259 31.8284 163.967 31.5179 163.711 31.184C163.463 30.8424 163.234 30.3805 163.024 29.7982C162.822 29.2082 162.721 28.5793 162.721 27.9117C162.721 26.289 163.292 24.9304 164.433 23.8357C165.582 22.7333 167.038 22.1821 168.8 22.1821H176.673ZM167.741 26.7238C167.415 27.0344 167.251 27.4303 167.251 27.9117C167.251 28.3852 167.418 28.7812 167.752 29.0995C168.086 29.4178 168.513 29.577 169.033 29.577H172.143V26.2463H169.033C168.505 26.2463 168.074 26.4055 167.741 26.7238Z" fill="white"/>
</svg>
